<?xml version="1.0" encoding="utf-8"?>
<svg xmlns="http://www.w3.org/2000/svg" xmlns:xlink="http://www.w3.org/1999/xlink" style="margin: auto; background: rgb(33, 29, 30) none repeat scroll 0% 0%; display: block; z-index: 1; position: relative; shape-rendering: crispedges;" width="518" height="296" preserveAspectRatio="xMidYMid" viewBox="0 0 518 296">
<g transform=""><path id="path0" d="M 483.8432880115315 199.5255708028324
c 0 20.017816231864945 -4.89797631205206 5.7497982793654625 -10.647774591417523 5.7497982793654625
S 462.5477388286964 219.54338703469733 462.5477388286964 199.5255708028324
s 4.89797631205206 -5.7497982793654625 10.647774591417523 -5.7497982793654625
S 483.8432880115315 179.50775457096745 483.8432880115315 199.5255708028324
z" fill="none" stroke="none"></path>
<circle cx="0" cy="0" r="3.3181038548975614" fill="#07abcc">
  <animateMotion begin="-10.805311780155122s" dur="20s" repeatCount="indefinite">
    <mpath xlink:href="#path0"></mpath>
  </animateMotion>
</circle><path id="path1" d="M 414.9097202047597 130.08535104426252
c 0 30.58252974993728 -7.482959406899546 8.78434365157773 -16.267303058477275 8.78434365157773
S 382.3751140878051 160.6678807941998 382.3751140878051 130.08535104426252
s 7.482959406899546 -8.78434365157773 16.267303058477275 -8.78434365157773
S 414.9097202047597 99.50282129432524 414.9097202047597 130.08535104426252
z" fill="none" stroke="none"></path>
<circle cx="0" cy="0" r="3.9433477459949717" fill="#91bcc6">
  <animateMotion begin="-1.493805968197851s" dur="20s" repeatCount="indefinite">
    <mpath xlink:href="#path1"></mpath>
  </animateMotion>
</circle><path id="path2" d="M 428.32540890423206 248.5030646128555
c 0 31.719898409595036 -7.761251738517934 9.111034649564532 -16.872286388082465 9.111034649564532
S 394.5808361280672 280.22296302245053 394.5808361280672 248.5030646128555
s 7.761251738517934 -9.111034649564532 16.872286388082465 -9.111034649564532
S 428.32540890423206 216.78316620326046 428.32540890423206 248.5030646128555
z" fill="none" stroke="none"></path>
<circle cx="0" cy="0" r="2.310494952560463" fill="#07abcc">
  <animateMotion begin="-0.3023657283456222s" dur="20s" repeatCount="indefinite">
    <mpath xlink:href="#path2"></mpath>
  </animateMotion>
</circle><path id="path3" d="M 274.4876367775886 47.42442519004634
c 0 22.360654120299248 -5.471223880498751 6.422741077107231 -11.893964957605982 6.422741077107231
S 250.69970686237662 69.7850793103456 250.69970686237662 47.42442519004634
s 5.471223880498751 -6.422741077107231 11.893964957605982 -6.422741077107231
S 274.4876367775886 25.063771069747094 274.4876367775886 47.42442519004634
z" fill="none" stroke="none"></path>
<circle cx="0" cy="0" r="3.8221044826751607" fill="#df1317">
  <animateMotion begin="-15.65220338213338s" dur="20s" repeatCount="indefinite">
    <mpath xlink:href="#path3"></mpath>
  </animateMotion>
</circle><path id="path4" d="M 311.63240608311105 150.89463588563274
c 0 37.036017955096774 -9.062004393268358 10.638005157315032 -19.700009550583392 10.638005157315032
S 272.2323869819443 187.93065384072952 272.2323869819443 150.89463588563274
s 9.062004393268358 -10.638005157315032 19.700009550583392 -10.638005157315032
S 311.63240608311105 113.85861793053596 311.63240608311105 150.89463588563274
z" fill="none" stroke="none"></path>
<circle cx="0" cy="0" r="3.122759242466257" fill="#e4934b">
  <animateMotion begin="-5.039273815865019s" dur="20s" repeatCount="indefinite">
    <mpath xlink:href="#path4"></mpath>
  </animateMotion>
</circle><path id="path5" d="M 89.83986011397883 163.24268459500522
c 0 36.54095420882101 -8.940871774498756 10.495805996150716 -19.436677770649474 10.495805996150716
S 50.966504572679874 199.78363880382622 50.966504572679874 163.24268459500522
s 8.940871774498756 -10.495805996150716 19.436677770649474 -10.495805996150716
S 89.83986011397883 126.70173038618421 89.83986011397883 163.24268459500522
z" fill="none" stroke="none"></path>
<circle cx="0" cy="0" r="3.924611905900568" fill="#e2bb8b">
  <animateMotion begin="-13.369245196191352s" dur="20s" repeatCount="indefinite">
    <mpath xlink:href="#path5"></mpath>
  </animateMotion>
</circle><path id="path6" d="M 486.60190582564485 92.81813472803327
c 0 30.80275218576268 -7.536843619920655 8.84759903208077 -16.384442652001425 8.84759903208077
S 453.83302052164197 123.62088691379596 453.83302052164197 92.81813472803327
s 7.536843619920655 -8.84759903208077 16.384442652001425 -8.84759903208077
S 486.60190582564485 62.015382542270586 486.60190582564485 92.81813472803327
z" fill="none" stroke="none"></path>
<circle cx="0" cy="0" r="2.1718806341740065" fill="#07abcc">
  <animateMotion begin="-5.467014866945853s" dur="20s" repeatCount="indefinite">
    <mpath xlink:href="#path6"></mpath>
  </animateMotion>
</circle><path id="path7" d="M 255.09524087863096 198.13423045243556
c 0 25.338697068736554 -6.199893963627028 7.278136392083904 -13.478030355710933 7.278136392083904
S 228.1391801672091 223.47292752117212 228.1391801672091 198.13423045243556
s 6.199893963627028 -7.278136392083904 13.478030355710933 -7.278136392083904
S 255.09524087863096 172.795533383699 255.09524087863096 198.13423045243556
z" fill="none" stroke="none"></path>
<circle cx="0" cy="0" r="3.644656876696196" fill="#e4934b">
  <animateMotion begin="-15.087219199877016s" dur="20s" repeatCount="indefinite">
    <mpath xlink:href="#path7"></mpath>
  </animateMotion>
</circle><path id="path8" d="M 95.71391048021418 30.78116422981432
c 0 23.178973635392506 -5.6714509958939106 6.657790299527634 -12.329241295421545 6.657790299527634
S 71.0554278893711 53.960137865206825 71.0554278893711 30.78116422981432
s 5.6714509958939106 -6.657790299527634 12.329241295421545 -6.657790299527634
S 95.71391048021418 7.602190594421813 95.71391048021418 30.78116422981432
z" fill="none" stroke="none"></path>
<circle cx="0" cy="0" r="2.2981102428322466" fill="#e2bb8b">
  <animateMotion begin="-8.681496015474368s" dur="20s" repeatCount="indefinite">
    <mpath xlink:href="#path8"></mpath>
  </animateMotion>
</circle><path id="path9" d="M 133.40995267996422 209.9564087047891
c 0 22.224503222827753 -5.437910363032322 6.3836339044292485 -11.82154426746157 6.3836339044292485
S 109.76686414504108 232.18091192761688 109.76686414504108 209.9564087047891
s 5.437910363032322 -6.3836339044292485 11.82154426746157 -6.3836339044292485
S 133.40995267996422 187.73190548196135 133.40995267996422 209.9564087047891
z" fill="none" stroke="none"></path>
<circle cx="0" cy="0" r="3.6190178196736813" fill="#e4934b">
  <animateMotion begin="-16.935932204401286s" dur="20s" repeatCount="indefinite">
    <mpath xlink:href="#path9"></mpath>
  </animateMotion>
</circle><path id="path10" d="M 51.21329370134153 52.63689657065581
c 0 20.069120684009604 -4.91052952906618 5.764534664555951 -10.67506419362213 5.764534664555951
S 29.863165314097262 72.70601725466541 29.863165314097262 52.63689657065581
s 4.91052952906618 -5.764534664555951 10.67506419362213 -5.764534664555951
S 51.21329370134153 32.5677758866462 51.21329370134153 52.63689657065581
z" fill="none" stroke="none"></path>
<circle cx="0" cy="0" r="3.4917468293489744" fill="#194645">
  <animateMotion begin="-5.885912747378327s" dur="20s" repeatCount="indefinite">
    <mpath xlink:href="#path10"></mpath>
  </animateMotion>
</circle><path id="path11" d="M 283.91781988829285 252.13802310569181
c 0 34.39061233935505 -8.414724295799639 9.87815460811262 -18.29287890391226 9.87815460811262
S 247.33206208046835 286.52863544504686 247.33206208046835 252.13802310569181
s 8.414724295799639 -9.87815460811262 18.29287890391226 -9.87815460811262
S 283.91781988829285 217.74741076633677 283.91781988829285 252.13802310569181
z" fill="none" stroke="none"></path>
<circle cx="0" cy="0" r="3.7704189570390927" fill="#e2bb8b">
  <animateMotion begin="-14.176794797952667s" dur="20s" repeatCount="indefinite">
    <mpath xlink:href="#path11"></mpath>
  </animateMotion>
</circle><path id="path12" d="M 140.12433807940914 108.09215487844074
c 0 23.94448418286143 -5.858756768146946 6.877670988694241 -12.736427756841186 6.877670988694241
S 114.65148256572677 132.03663906130217 114.65148256572677 108.09215487844074
s 5.858756768146946 -6.877670988694241 12.736427756841186 -6.877670988694241
S 140.12433807940914 84.14767069557931 140.12433807940914 108.09215487844074
z" fill="none" stroke="none"></path>
<circle cx="0" cy="0" r="3.203965890939121" fill="#91bcc6">
  <animateMotion begin="-5.364087503464216s" dur="20s" repeatCount="indefinite">
    <mpath xlink:href="#path12"></mpath>
  </animateMotion>
</circle><path id="path13" d="M 358.78911130359404 47.60788718027456
c 0 26.551922715265047 -6.496747047352085 7.626616099065493 -14.123363146417578 7.626616099065493
S 330.54238501075884 74.15980989553961 330.54238501075884 47.60788718027456
s 6.496747047352085 -7.626616099065493 14.123363146417578 -7.626616099065493
S 358.78911130359404 21.055964465009513 358.78911130359404 47.60788718027456
z" fill="none" stroke="none"></path>
<circle cx="0" cy="0" r="2.013935345093402" fill="#df1317">
  <animateMotion begin="-5.299006116078474s" dur="20s" repeatCount="indefinite">
    <mpath xlink:href="#path13"></mpath>
  </animateMotion>
</circle><path id="path14" d="M 523.0455934915577 195.847413884782
c 0 27.37597929983105 -6.698377913788448 7.863313203142962 -14.56169111693141 7.863313203142962
S 493.92221125769487 223.22339318461303 493.92221125769487 195.847413884782
s 6.698377913788448 -7.863313203142962 14.56169111693141 -7.863313203142962
S 523.0455934915577 168.47143458495094 523.0455934915577 195.847413884782
z" fill="none" stroke="none"></path>
<circle cx="0" cy="0" r="3.5997224977546214" fill="#e1e7e7">
  <animateMotion begin="-5.292171493515335s" dur="20s" repeatCount="indefinite">
    <mpath xlink:href="#path14"></mpath>
  </animateMotion>
</circle><path id="path15" d="M 125.22120831837793 289.9253863288791
c 0 36.73015631275312 -8.987165906311931 10.550151281322703 -19.537317187634635 10.550151281322703
S 86.14657394310868 326.6555426416322 86.14657394310868 289.9253863288791
s 8.987165906311931 -10.550151281322703 19.537317187634635 -10.550151281322703
S 125.22120831837793 253.19523001612598 125.22120831837793 289.9253863288791
z" fill="none" stroke="none"></path>
<circle cx="0" cy="0" r="3.4165677755829664" fill="#e1e7e7">
  <animateMotion begin="-6.954050398769694s" dur="20s" repeatCount="indefinite">
    <mpath xlink:href="#path15"></mpath>
  </animateMotion>
</circle><path id="path16" d="M 23.41791380840879 154.88521440950774
c 0 36.484581709751005 -8.927078503449712 10.479613895354012 -19.406692398803724 10.479613895354012
S -15.395470989198659 191.36979611925875 -15.395470989198659 154.88521440950774
s 8.927078503449712 -10.479613895354012 19.406692398803724 -10.479613895354012
S 23.41791380840879 118.40063269975673 23.41791380840879 154.88521440950774
z" fill="none" stroke="none"></path>
<circle cx="0" cy="0" r="3.375836751185118" fill="#e1e7e7">
  <animateMotion begin="-9.302302348125709s" dur="20s" repeatCount="indefinite">
    <mpath xlink:href="#path16"></mpath>
  </animateMotion>
</circle><path id="path17" d="M 107.88077495833609 258.8425734860712
c 0 27.205157170761243 -6.656581009867112 7.814247272452698 -14.47082828231981 7.814247272452698
S 78.93911839369646 286.04773065683247 78.93911839369646 258.8425734860712
s 6.656581009867112 -7.814247272452698 14.47082828231981 -7.814247272452698
S 107.88077495833609 231.63741631530996 107.88077495833609 258.8425734860712
z" fill="none" stroke="none"></path>
<circle cx="0" cy="0" r="3.68030944832785" fill="#0a69aa">
  <animateMotion begin="-14.09316942582478s" dur="20s" repeatCount="indefinite">
    <mpath xlink:href="#path17"></mpath>
  </animateMotion>
</circle><path id="path18" d="M 35.453775431623036 197.82115280675424
c 0 29.887169878152417 -7.31281816167559 8.584612624575694 -15.897430786251284 8.584612624575694
S 3.6589138591204673 227.70832268490665 3.6589138591204673 197.82115280675424
s 7.31281816167559 -8.584612624575694 15.897430786251284 -8.584612624575694
S 35.453775431623036 167.93398292860184 35.453775431623036 197.82115280675424
z" fill="none" stroke="none"></path>
<circle cx="0" cy="0" r="2.3833004237856654" fill="#07abcc">
  <animateMotion begin="-5.88636513782029s" dur="20s" repeatCount="indefinite">
    <mpath xlink:href="#path18"></mpath>
  </animateMotion>
</circle><path id="path19" d="M 189.819077384706 270.69587309882394
c 0 30.16800088761881 -7.381532132076942 8.66527685069902 -16.04680898277596 8.66527685069902
S 157.72545941915408 300.86387398644274 157.72545941915408 270.69587309882394
s 7.381532132076942 -8.66527685069902 16.04680898277596 -8.66527685069902
S 189.819077384706 240.52787221120514 189.819077384706 270.69587309882394
z" fill="none" stroke="none"></path>
<circle cx="0" cy="0" r="2.445358033725949" fill="#e2bb8b">
  <animateMotion begin="-13.845580758018327s" dur="20s" repeatCount="indefinite">
    <mpath xlink:href="#path19"></mpath>
  </animateMotion>
</circle><path id="path20" d="M 98.63548982150485 221.50875001207405
c 0 37.44732484185728 -9.162643312369333 10.756146497129219 -19.918789809498552 10.756146497129219
S 58.79791020250775 258.95607485393134 58.79791020250775 221.50875001207405
s 9.162643312369333 -10.756146497129219 19.918789809498552 -10.756146497129219
S 98.63548982150485 184.06142517021675 98.63548982150485 221.50875001207405
z" fill="none" stroke="none"></path>
<circle cx="0" cy="0" r="2.604722929828489" fill="#e4934b">
  <animateMotion begin="-5.568572199688991s" dur="20s" repeatCount="indefinite">
    <mpath xlink:href="#path20"></mpath>
  </animateMotion>
</circle><path id="path21" d="M 315.35976180637937 116.8155691121713
c 0 34.33444958544051 -8.400982345373741 9.862022753264826 -18.263005098638565 9.862022753264826
S 278.8337516091022 151.1500186976118 278.8337516091022 116.8155691121713
s 8.400982345373741 -9.862022753264826 18.263005098638565 -9.862022753264826
S 315.35976180637937 82.4811195267308 315.35976180637937 116.8155691121713
z" fill="none" stroke="none"></path>
<circle cx="0" cy="0" r="3.565840525999219" fill="#07abcc">
  <animateMotion begin="-15.297514289006786s" dur="20s" repeatCount="indefinite">
    <mpath xlink:href="#path21"></mpath>
  </animateMotion>
</circle><path id="path22" d="M 161.67036149713277 108.1074060031204
c 0 28.261187796624853 -6.914971482152889 8.117575218179478 -15.032546700332368 8.117575218179478
S 131.60526809646802 136.36859379974527 131.60526809646802 108.1074060031204
s 6.914971482152889 -8.117575218179478 15.032546700332368 -8.117575218179478
S 161.67036149713277 79.84621820649555 161.67036149713277 108.1074060031204
z" fill="none" stroke="none"></path>
<circle cx="0" cy="0" r="3.1323310781422737" fill="#e4934b">
  <animateMotion begin="-5.621208220538074s" dur="20s" repeatCount="indefinite">
    <mpath xlink:href="#path22"></mpath>
  </animateMotion>
</circle><path id="path23" d="M 353.5899136099329 98.07309851070593
c 0 20.201912557872895 -4.94302115777741 5.802677011303916 -10.745698169081326 5.802677011303916
S 332.0985172717703 118.27501106857883 332.0985172717703 98.07309851070593
s 4.94302115777741 -5.802677011303916 10.745698169081326 -5.802677011303916
S 353.5899136099329 77.87118595283303 353.5899136099329 98.07309851070593
z" fill="none" stroke="none"></path>
<circle cx="0" cy="0" r="3.869896152290933" fill="#e1e7e7">
  <animateMotion begin="-2.566295368138456s" dur="20s" repeatCount="indefinite">
    <mpath xlink:href="#path23"></mpath>
  </animateMotion>
</circle><path id="path24" d="M 173.43503950107998 181.37977483740613
c 0 32.652475993971414 -7.9894356155461965 9.378902679119449 -17.368338294665648 9.378902679119449
S 138.6983629117487 214.03225083137755 138.6983629117487 181.37977483740613
s 7.9894356155461965 -9.378902679119449 17.368338294665648 -9.378902679119449
S 173.43503950107998 148.7272988434347 173.43503950107998 181.37977483740613
z" fill="none" stroke="none"></path>
<circle cx="0" cy="0" r="2.1030081612080727" fill="#07abcc">
  <animateMotion begin="-14.08580142507148s" dur="20s" repeatCount="indefinite">
    <mpath xlink:href="#path24"></mpath>
  </animateMotion>
</circle><path id="path25" d="M 179.3315269945964 245.08235342789243
c 0 28.374834580757934 -6.942778674015238 8.150218443409194 -15.092997117424432 8.150218443409194
S 149.14553275974754 273.45718800865035 149.14553275974754 245.08235342789243
s 6.942778674015238 -8.150218443409194 15.092997117424432 -8.150218443409194
S 179.3315269945964 216.7075188471345 179.3315269945964 245.08235342789243
z" fill="none" stroke="none"></path>
<circle cx="0" cy="0" r="2.4385857356396645" fill="#e4934b">
  <animateMotion begin="-17.171803839510677s" dur="20s" repeatCount="indefinite">
    <mpath xlink:href="#path25"></mpath>
  </animateMotion>
</circle><path id="path26" d="M 246.99180172999257 112.38634700387728
c 0 35.42106100309088 -8.666855351820105 10.174134543440996 -18.840989895261103 10.174134543440996
S 209.30982193947034 147.80740800696816 209.30982193947034 112.38634700387728
s 8.666855351820105 -10.174134543440996 18.840989895261103 -10.174134543440996
S 246.99180172999257 76.96528600078639 246.99180172999257 112.38634700387728
z" fill="none" stroke="none"></path>
<circle cx="0" cy="0" r="3.6760283622350594" fill="#e4934b">
  <animateMotion begin="-6.396162423868858s" dur="20s" repeatCount="indefinite">
    <mpath xlink:href="#path26"></mpath>
  </animateMotion>
</circle><path id="path27" d="M 257.5104740674405 16.757147472368963
c 0 28.909045473514027 -7.0734898499023675 8.303661997711476 -15.377151847613844 8.303661997711476
S 226.75617037221284 45.66619294588299 226.75617037221284 16.757147472368963
s 7.0734898499023675 -8.303661997711476 15.377151847613844 -8.303661997711476
S 257.5104740674405 -12.151898001145064 257.5104740674405 16.757147472368963
z" fill="none" stroke="none"></path>
<circle cx="0" cy="0" r="3.646673054691417" fill="#e4934b">
  <animateMotion begin="-7.270540415491152s" dur="20s" repeatCount="indefinite">
    <mpath xlink:href="#path27"></mpath>
  </animateMotion>
</circle><path id="path28" d="M 388.02865061414553 76.17967592057991
c 0 19.39566461418629 -4.74574772474771 5.571095155138616 -10.316842879886325 5.571095155138616
S 367.39496485437286 95.5753405347662 367.39496485437286 76.17967592057991
s 4.74574772474771 -5.571095155138616 10.316842879886325 -5.571095155138616
S 388.02865061414553 56.78401130639362 388.02865061414553 76.17967592057991
z" fill="none" stroke="none"></path>
<circle cx="0" cy="0" r="2.5201027373803835" fill="#e2bb8b">
  <animateMotion begin="-15.330814721877024s" dur="20s" repeatCount="indefinite">
    <mpath xlink:href="#path28"></mpath>
  </animateMotion>
</circle><path id="path29" d="M 307.7913408565594 246.76786428365156
c 0 32.85378799118968 -8.03869280635492 9.436726337894909 -17.475419144249827 9.436726337894909
S 272.8405025680597 279.62165227484127 272.8405025680597 246.76786428365156
s 8.03869280635492 -9.436726337894909 17.475419144249827 -9.436726337894909
S 307.7913408565594 213.91407629246189 307.7913408565594 246.76786428365156
z" fill="none" stroke="none"></path>
<circle cx="0" cy="0" r="2.382904984835965" fill="#e1e7e7">
  <animateMotion begin="-17.893430166467695s" dur="20s" repeatCount="indefinite">
    <mpath xlink:href="#path29"></mpath>
  </animateMotion>
</circle></g>
<style type="text/css">.lded > .content, .lded > .content > .inner { height: 100%; }
.lded > .content > .inner > .viewer { width: 100%; height: 100%; max-width: 100%; overflow: hidden }
.lded > .content > .inner > .panel {
  position: absolute;
  bottom: 50px;
  left: 0;
  right: 0;
  opacity: 0.3;
}
.lded > .content > .inner > .panel:hover { opacity: 1; }
.lded > .content > .inner > .ctrl {
  position: absolute;
  bottom: 13px;
  left: 0;
  right: 0;
  margin: auto;
}
.lded > .content > .inner > .ctrl:hover {
  z-index: 10;
}
#editor > .inner > .title {
  position: absolute;
  bottom: 195px;
  left: 0;
  right: 0;
  z-index: 11;
}
#editor > .inner > .title > a:first-child {
  margin-left: 0!important;
#editor .lded .viewer { border-radius: 0 }</style></svg>