<svg width="200px"  height="200px"  xmlns="http://www.w3.org/2000/svg" viewBox="0 0 100 100" preserveAspectRatio="xMidYMid" class="lds-hive" style="background: none;"><polygon fill="#337ab7" points="31.6,19 13.9,19 5,34.3 13.9,49.7 31.6,49.7 40.4,34.3"><animate attributeName="opacity" calcMode="linear" values="1;0.5;1" keyTimes="0;0.5;1" dur="1" begin="0s" repeatCount="indefinite"></animate></polygon><polygon fill="#5bc0de" points="58.9,3.1 41.1,3.1 32.3,18.4 41.1,33.7 58.9,33.7 67.7,18.4"><animate attributeName="opacity" calcMode="linear" values="1;0.5;1" keyTimes="0;0.5;1" dur="1" begin="-0.14285714285714285s" repeatCount="indefinite"></animate></polygon><polygon fill="#5cb85c" points="58.9,34.6 41.1,34.6 32.3,50 41.1,65.3 58.9,65.3 67.7,50"><animate attributeName="opacity" calcMode="linear" values="1;0.5;1" keyTimes="0;0.5;1" dur="1" begin="-0.2857142857142857s" repeatCount="indefinite"></animate></polygon><polygon fill="#f0ad4e" points="58.9,66.3 41.1,66.3 32.3,81.6 41.1,96.9 58.9,96.9 67.7,81.6"><animate attributeName="opacity" calcMode="linear" values="1;0.5;1" keyTimes="0;0.5;1" dur="1" begin="-0.42857142857142855s" repeatCount="indefinite"></animate></polygon><polygon fill="#d9534f" points="86.1,50.6 68.4,50.6 59.6,65.9 68.4,81.2 86.1,81.2 95,65.9"><animate attributeName="opacity" calcMode="linear" values="1;0.5;1" keyTimes="0;0.5;1" dur="1" begin="-0.5714285714285714s" repeatCount="indefinite"></animate></polygon><polygon fill="#337ab7" points="86.1,19 68.4,19 59.6,34.3 68.4,49.7 86.1,49.7 95,34.3"><animate attributeName="opacity" calcMode="linear" values="1;0.5;1" keyTimes="0;0.5;1" dur="1" begin="-0.7142857142857143s" repeatCount="indefinite"></animate></polygon><polygon fill="#5bc0de" points="31.6,50.6 13.9,50.6 5,65.9 13.9,81.2 31.6,81.2 40.4,65.9"><animate attributeName="opacity" calcMode="linear" values="1;0.5;1" keyTimes="0;0.5;1" dur="1" begin="-0.8571428571428571s" repeatCount="indefinite"></animate></polygon></svg>