<?xml version="1.0" encoding="utf-8"?>
<svg xmlns="http://www.w3.org/2000/svg" xmlns:xlink="http://www.w3.org/1999/xlink" style="margin: auto; background: rgb(10, 10, 10); display: block; z-index: 1; position: relative; shape-rendering: auto;" width="1920" height="1060" preserveAspectRatio="xMidYMid" viewBox="0 0 1920 1060">
<g transform=""><path id="path0" d="M 1769.3208525236068 716.3855731351683
c 0 20.017816231864945 -4.89797631205206 5.7497982793654625 -10.647774591417523 5.7497982793654625
S 1748.0253033407716 736.4033893670332 1748.0253033407716 716.3855731351683
s 4.89797631205206 -5.7497982793654625 10.647774591417523 -5.7497982793654625
S 1769.3208525236068 696.3677569033034 1769.3208525236068 716.3855731351683
z" fill="none" stroke="none"></path>
<circle cx="0" cy="0" r="6.636207709795123" fill="#eeeeee">
  <animateMotion begin="-9.735585913919765s" dur="18.02s" repeatCount="indefinite">
    <mpath xlink:href="#path0"></mpath>
  </animateMotion>
</circle><path id="path1" d="M 1497.5452311723682 465.07084595518194
c 0 30.58252974993728 -7.482959406899546 8.78434365157773 -16.267303058477275 8.78434365157773
S 1465.0106250554138 495.65337570511923 1465.0106250554138 465.07084595518194
s 7.482959406899546 -8.78434365157773 16.267303058477275 -8.78434365157773
S 1497.5452311723682 434.48831620524464 1497.5452311723682 465.07084595518194
z" fill="none" stroke="none"></path>
<circle cx="0" cy="0" r="7.8866954919899435" fill="#fc5c5c">
  <animateMotion begin="-1.3459191773462638s" dur="18.02s" repeatCount="indefinite">
    <mpath xlink:href="#path1"></mpath>
  </animateMotion>
</circle><path id="path2" d="M 1544.2913292836392 892.4296793417631
c 0 31.719898409595036 -7.761251738517934 9.111034649564532 -16.872286388082465 9.111034649564532
S 1510.5467565074741 924.1495777513582 1510.5467565074741 892.4296793417631
s 7.761251738517934 -9.111034649564532 16.872286388082465 -9.111034649564532
S 1544.2913292836392 860.709780932168 1544.2913292836392 892.4296793417631
z" fill="none" stroke="none"></path>
<circle cx="0" cy="0" r="4.620989905120926" fill="#eeeeee">
  <animateMotion begin="-0.2724315212394056s" dur="18.02s" repeatCount="indefinite">
    <mpath xlink:href="#path2"></mpath>
  </animateMotion>
</circle><path id="path3" d="M 985.3059972259185 165.61519780745434
c 0 22.360654120299248 -5.471223880498751 6.422741077107231 -11.893964957605982 6.422741077107231
S 961.5180673107067 187.97585192775358 961.5180673107067 165.61519780745434
s 5.471223880498751 -6.422741077107231 11.893964957605982 -6.422741077107231
S 985.3059972259185 143.2545436871551 985.3059972259185 165.61519780745434
z" fill="none" stroke="none"></path>
<circle cx="0" cy="0" r="7.644208965350321" fill="#a80909">
  <animateMotion begin="-14.102635247302173s" dur="18.02s" repeatCount="indefinite">
    <mpath xlink:href="#path3"></mpath>
  </animateMotion>
</circle><path id="path4" d="M 1102.4519224871963 540.4645733831429
c 0 37.036017955096774 -9.062004393268358 10.638005157315032 -19.700009550583392 10.638005157315032
S 1063.0519033860294 577.5005913382397 1063.0519033860294 540.4645733831429
s 9.062004393268358 -10.638005157315032 19.700009550583392 -10.638005157315032
S 1102.4519224871963 503.42855542804614 1102.4519224871963 540.4645733831429
z" fill="none" stroke="none"></path>
<circle cx="0" cy="0" r="6.245518484932514" fill="#a80909">
  <animateMotion begin="-4.540385708094382s" dur="18.02s" repeatCount="indefinite">
    <mpath xlink:href="#path4"></mpath>
  </animateMotion>
</circle><path id="path5" d="M 275.43850820919675 585.2417709767033
c 0 36.54095420882101 -8.940871774498756 10.495805996150716 -19.436677770649474 10.495805996150716
S 236.56515266789782 621.7827251855243 236.56515266789782 585.2417709767033
s 8.940871774498756 -10.495805996150716 19.436677770649474 -10.495805996150716
S 275.43850820919675 548.7008167678822 275.43850820919675 585.2417709767033
z" fill="none" stroke="none"></path>
<circle cx="0" cy="0" r="7.849223811801136" fill="#d62e2e">
  <animateMotion begin="-12.045689921768409s" dur="18.02s" repeatCount="indefinite">
    <mpath xlink:href="#path5"></mpath>
  </animateMotion>
</circle><path id="path6" d="M 1762.3236416360826 331.08985927266684
c 0 30.80275218576268 -7.536843619920655 8.84759903208077 -16.384442652001425 8.84759903208077
S 1729.55475633208 361.89261145842954 1729.55475633208 331.08985927266684
s 7.536843619920655 -8.84759903208077 16.384442652001425 -8.84759903208077
S 1762.3236416360826 300.28710708690414 1762.3236416360826 331.08985927266684
z" fill="none" stroke="none"></path>
<circle cx="0" cy="0" r="4.343761268348013" fill="#eeeeee">
  <animateMotion begin="-4.925780395118213s" dur="18.02s" repeatCount="indefinite">
    <mpath xlink:href="#path6"></mpath>
  </animateMotion>
</circle><path id="path7" d="M 908.624211011142 711.53604457754
c 0 25.338697068736554 -6.199893963627028 7.278136392083904 -13.478030355710933 7.278136392083904
S 881.6681502997201 736.8747416462766 881.6681502997201 711.53604457754
s 6.199893963627028 -7.278136392083904 13.478030355710933 -7.278136392083904
S 908.624211011142 686.1973475088034 908.624211011142 711.53604457754
z" fill="none" stroke="none"></path>
<circle cx="0" cy="0" r="7.289313753392392" fill="#d62e2e">
  <animateMotion begin="-13.593584499089191s" dur="18.02s" repeatCount="indefinite">
    <mpath xlink:href="#path7"></mpath>
  </animateMotion>
</circle><path id="path8" d="M 318.7167923951519 107.30665369838842
c 0 23.178973635392506 -5.6714509958939106 6.657790299527634 -12.329241295421545 6.657790299527634
S 294.05830980430886 130.4856273337809 294.05830980430886 107.30665369838842
s 5.6714509958939106 -6.657790299527634 12.329241295421545 -6.657790299527634
S 318.7167923951519 84.1276800629959 318.7167923951519 107.30665369838842
z" fill="none" stroke="none"></path>
<circle cx="0" cy="0" r="4.596220485664493" fill="#d62e2e">
  <animateMotion begin="-7.822027909942404s" dur="18.02s" repeatCount="indefinite">
    <mpath xlink:href="#path8"></mpath>
  </animateMotion>
</circle><path id="path9" d="M 459.17359057455974 754.3263165975354
c 0 22.224503222827753 -5.437910363032322 6.3836339044292485 -11.82154426746157 6.3836339044292485
S 435.53050203963664 776.5508198203631 435.53050203963664 754.3263165975354
s 5.437910363032322 -6.3836339044292485 11.82154426746157 -6.3836339044292485
S 459.17359057455974 732.1018133747077 459.17359057455974 754.3263165975354
z" fill="none" stroke="none"></path>
<circle cx="0" cy="0" r="7.238035639347363" fill="#a80909">
  <animateMotion begin="-15.259274916165559s" dur="18.02s" repeatCount="indefinite">
    <mpath xlink:href="#path9"></mpath>
  </animateMotion>
</circle><path id="path10" d="M 155.83769318848366 184.85378104612278
c 0 20.069120684009604 -4.91052952906618 5.764534664555951 -10.67506419362213 5.764534664555951
S 134.48756480123942 204.92290173013237 134.48756480123942 184.85378104612278
s 4.91052952906618 -5.764534664555951 10.67506419362213 -5.764534664555951
S 155.83769318848366 164.7846603621132 155.83769318848366 184.85378104612278
z" fill="none" stroke="none"></path>
<circle cx="0" cy="0" r="6.983493658697949" fill="#ff0000">
  <animateMotion begin="-5.303207385387872s" dur="18.02s" repeatCount="indefinite">
    <mpath xlink:href="#path10"></mpath>
  </animateMotion>
</circle><path id="path11" d="M 1003.0156626543965 907.2309667659501
c 0 34.39061233935505 -8.414724295799639 9.87815460811262 -18.29287890391226 9.87815460811262
S 966.4299048465718 941.6215791053052 966.4299048465718 907.2309667659501
s 8.414724295799639 -9.87815460811262 18.29287890391226 -9.87815460811262
S 1003.0156626543965 872.8403544265951 1003.0156626543965 907.2309667659501
z" fill="none" stroke="none"></path>
<circle cx="0" cy="0" r="7.540837914078185" fill="#d62e2e">
  <animateMotion begin="-12.773292112955353s" dur="18.02s" repeatCount="indefinite">
    <mpath xlink:href="#path11"></mpath>
  </animateMotion>
</circle><path id="path12" d="M 482.0945566459642 385.6905836966006
c 0 23.94448418286143 -5.858756768146946 6.877670988694241 -12.736427756841186 6.877670988694241
S 456.6217011322818 409.635067879462 456.6217011322818 385.6905836966006
s 5.858756768146946 -6.877670988694241 12.736427756841186 -6.877670988694241
S 482.0945566459642 361.7460995137392 482.0945566459642 385.6905836966006
z" fill="none" stroke="none"></path>
<circle cx="0" cy="0" r="6.407931781878242" fill="#eeeeee">
  <animateMotion begin="-4.833042840621258s" dur="18.02s" repeatCount="indefinite">
    <mpath xlink:href="#path12"></mpath>
  </animateMotion>
</circle><path id="path13" d="M 1292.7946023231625 168.2979877529889
c 0 26.551922715265047 -6.496747047352085 7.626616099065493 -14.123363146417578 7.626616099065493
S 1264.5478760303272 194.84991046825394 1264.5478760303272 168.2979877529889
s 6.496747047352085 -7.626616099065493 14.123363146417578 -7.626616099065493
S 1292.7946023231625 141.74606503772384 1292.7946023231625 168.2979877529889
z" fill="none" stroke="none"></path>
<circle cx="0" cy="0" r="4.027870690186804" fill="#a80909">
  <animateMotion begin="-4.774404510586705s" dur="18.02s" repeatCount="indefinite">
    <mpath xlink:href="#path13"></mpath>
  </animateMotion>
</circle><path id="path14" d="M 1905.2905179293466 703.2313466925618
c 0 27.37597929983105 -6.698377913788448 7.863313203142962 -14.56169111693141 7.863313203142962
S 1876.167135695484 730.6073259923929 1876.167135695484 703.2313466925618
s 6.698377913788448 -7.863313203142962 14.56169111693141 -7.863313203142962
S 1905.2905179293466 675.8553673927307 1905.2905179293466 703.2313466925618
z" fill="none" stroke="none"></path>
<circle cx="0" cy="0" r="7.199444995509243" fill="#fc5c5c">
  <animateMotion begin="-4.768246515657317s" dur="18.02s" repeatCount="indefinite">
    <mpath xlink:href="#path14"></mpath>
  </animateMotion>
</circle><path id="path15" d="M 407.7638125885972 1043.5488776896648
c 0 36.73015631275312 -8.987165906311931 10.550151281322703 -19.537317187634635 10.550151281322703
S 368.6891782133279 1080.2790340024178 368.6891782133279 1043.5488776896648
s 8.987165906311931 -10.550151281322703 19.537317187634635 -10.550151281322703
S 407.7638125885972 1006.8187213769116 407.7638125885972 1043.5488776896648
z" fill="none" stroke="none"></path>
<circle cx="0" cy="0" r="6.833135551165933" fill="#fc5c5c">
  <animateMotion begin="-6.265599409291495s" dur="18.02s" repeatCount="indefinite">
    <mpath xlink:href="#path15"></mpath>
  </animateMotion>
</circle><path id="path16" d="M 28.527779475474986 554.9106154630202
c 0 36.484581709751005 -8.927078503449712 10.479613895354012 -19.406692398803724 10.479613895354012
S -10.285605322132461 591.3951971727712 -10.285605322132461 554.9106154630202
s 8.927078503449712 -10.479613895354012 19.406692398803724 -10.479613895354012
S 28.527779475474986 518.4260337532693 28.527779475474986 554.9106154630202
z" fill="none" stroke="none"></path>
<circle cx="0" cy="0" r="6.751673502370236" fill="#d62e2e">
  <animateMotion begin="-8.381374415661265s" dur="18.02s" repeatCount="indefinite">
    <mpath xlink:href="#path16"></mpath>
  </animateMotion>
</circle><path id="path17" d="M 356.62734909517764 931.4053368962894
c 0 27.205157170761243 -6.656581009867112 7.814247272452698 -14.47082828231981 7.814247272452698
S 327.685692530538 958.6104940670507 327.685692530538 931.4053368962894
s 6.656581009867112 -7.814247272452698 14.47082828231981 -7.814247272452698
S 356.62734909517764 904.2001797255282 356.62734909517764 931.4053368962894
z" fill="none" stroke="none"></path>
<circle cx="0" cy="0" r="7.3606188966557" fill="#ff0000">
  <animateMotion begin="-12.697945652668125s" dur="18.02s" repeatCount="indefinite">
    <mpath xlink:href="#path17"></mpath>
  </animateMotion>
</circle><path id="path18" d="M 84.58919875143897 709.7028329480037
c 0 29.887169878152417 -7.31281816167559 8.584612624575694 -15.897430786251284 8.584612624575694
S 52.794337178936395 739.5900028261561 52.794337178936395 709.7028329480037
s 7.31281816167559 -8.584612624575694 15.897430786251284 -8.584612624575694
S 84.58919875143897 679.8156630698512 84.58919875143897 709.7028329480037
z" fill="none" stroke="none"></path>
<circle cx="0" cy="0" r="4.766600847571331" fill="#eeeeee">
  <animateMotion begin="-5.303614989176081s" dur="18.02s" repeatCount="indefinite">
    <mpath xlink:href="#path18"></mpath>
  </animateMotion>
</circle><path id="path19" d="M 658.7584641921608 972.6429909348461
c 0 30.16800088761881 -7.381532132076942 8.66527685069902 -16.04680898277596 8.66527685069902
S 626.6648462266089 1002.810991822465 626.6648462266089 972.6429909348461
s 7.381532132076942 -8.66527685069902 16.04680898277596 -8.66527685069902
S 658.7584641921608 942.4749900472273 658.7584641921608 972.6429909348461
z" fill="none" stroke="none"></path>
<circle cx="0" cy="0" r="4.890716067451898" fill="#d62e2e">
  <animateMotion begin="-12.474868262974512s" dur="18.02s" repeatCount="indefinite">
    <mpath xlink:href="#path19"></mpath>
  </animateMotion>
</circle><path id="path20" d="M 308.5616811109789 795.3229075273345
c 0 37.44732484185728 -9.162643312369333 10.756146497129219 -19.918789809498552 10.756146497129219
S 268.7241014919818 832.7702323691917 268.7241014919818 795.3229075273345
s 9.162643312369333 -10.756146497129219 19.918789809498552 -10.756146497129219
S 308.5616811109789 757.8755826854772 308.5616811109789 795.3229075273345
z" fill="none" stroke="none"></path>
<circle cx="0" cy="0" r="5.209445859656978" fill="#a80909">
  <animateMotion begin="-5.017283551919781s" dur="18.02s" repeatCount="indefinite">
    <mpath xlink:href="#path20"></mpath>
  </animateMotion>
</circle><path id="path21" d="M 1120.3786586832207 417.1087628089517
c 0 34.33444958544051 -8.400982345373741 9.862022753264826 -18.263005098638565 9.862022753264826
S 1083.8526484859435 451.4432123943922 1083.8526484859435 417.1087628089517
s 8.400982345373741 -9.862022753264826 18.263005098638565 -9.862022753264826
S 1120.3786586832207 382.77431322351123 1120.3786586832207 417.1087628089517
z" fill="none" stroke="none"></path>
<circle cx="0" cy="0" r="7.131681051998438" fill="#eeeeee">
  <animateMotion begin="-13.783060374395115s" dur="18.02s" repeatCount="indefinite">
    <mpath xlink:href="#path21"></mpath>
  </animateMotion>
</circle><path id="path22" d="M 556.2075067209372 385.77761173414217
c 0 28.261187796624853 -6.914971482152889 8.117575218179478 -15.032546700332368 8.117575218179478
S 526.1424133202726 414.03879953076705 526.1424133202726 385.77761173414217
s 6.914971482152889 -8.117575218179478 15.032546700332368 -8.117575218179478
S 556.2075067209372 357.5164239375173 556.2075067209372 385.77761173414217
z" fill="none" stroke="none"></path>
<circle cx="0" cy="0" r="6.2646621562845475" fill="#d62e2e">
  <animateMotion begin="-5.064708606704805s" dur="18.02s" repeatCount="indefinite">
    <mpath xlink:href="#path22"></mpath>
  </animateMotion>
</circle><path id="path23" d="M 1283.6899913185218 349.0882178997204
c 0 20.201912557872895 -4.94302115777741 5.802677011303916 -10.745698169081326 5.802677011303916
S 1262.198594980359 369.2901304575933 1262.198594980359 349.0882178997204
s 4.94302115777741 -5.802677011303916 10.745698169081326 -5.802677011303916
S 1283.6899913185218 328.8863053418475 1283.6899913185218 349.0882178997204
z" fill="none" stroke="none"></path>
<circle cx="0" cy="0" r="7.739792304581866" fill="#d62e2e">
  <animateMotion begin="-2.3122321266927486s" dur="18.02s" repeatCount="indefinite">
    <mpath xlink:href="#path23"></mpath>
  </animateMotion>
</circle><path id="path24" d="M 594.4015039896008 650.296413002218
c 0 32.652475993971414 -7.9894356155461965 9.378902679119449 -17.368338294665648 9.378902679119449
S 559.6648274002694 682.9488889961893 559.6648274002694 650.296413002218
s 7.9894356155461965 -9.378902679119449 17.368338294665648 -9.378902679119449
S 594.4015039896008 617.6439370082466 594.4015039896008 650.296413002218
z" fill="none" stroke="none"></path>
<circle cx="0" cy="0" r="4.206016322416145" fill="#eeeeee">
  <animateMotion begin="-12.691307083989404s" dur="18.02s" repeatCount="indefinite">
    <mpath xlink:href="#path24"></mpath>
  </animateMotion>
</circle><path id="path25" d="M 622.3164752122434 880.2312772235955
c 0 28.374834580757934 -6.942778674015238 8.150218443409194 -15.092997117424432 8.150218443409194
S 592.1304809773944 908.6061118043534 592.1304809773944 880.2312772235955
s 6.942778674015238 -8.150218443409194 15.092997117424432 -8.150218443409194
S 622.3164752122434 851.8564426428376 622.3164752122434 880.2312772235955
z" fill="none" stroke="none"></path>
<circle cx="0" cy="0" r="4.877171471279329" fill="#a80909">
  <animateMotion begin="-15.471795259399117s" dur="18.02s" repeatCount="indefinite">
    <mpath xlink:href="#path25"></mpath>
  </animateMotion>
</circle><path id="path26" d="M 863.7385360643415 401.0304166402151
c 0 35.42106100309088 -8.666855351820105 10.174134543440996 -18.840989895261103 10.174134543440996
S 826.0565562738192 436.45147764330596 826.0565562738192 401.0304166402151
s 8.666855351820105 -10.174134543440996 18.840989895261103 -10.174134543440996
S 863.7385360643415 365.6093556371242 863.7385360643415 401.0304166402151
z" fill="none" stroke="none"></path>
<circle cx="0" cy="0" r="7.352056724470119" fill="#d62e2e">
  <animateMotion begin="-5.7629423439058405s" dur="18.02s" repeatCount="indefinite">
    <mpath xlink:href="#path26"></mpath>
  </animateMotion>
</circle><path id="path27" d="M 912.4486741088382 54.766669785387556
c 0 28.909045473514027 -7.0734898499023675 8.303661997711476 -15.377151847613844 8.303661997711476
S 881.6943704136105 83.67571525890159 881.6943704136105 54.766669785387556
s 7.0734898499023675 -8.303661997711476 15.377151847613844 -8.303661997711476
S 912.4486741088382 25.85762431187353 912.4486741088382 54.766669785387556
z" fill="none" stroke="none"></path>
<circle cx="0" cy="0" r="7.293346109382834" fill="#a80909">
  <animateMotion begin="-6.550756914357528s" dur="18.02s" repeatCount="indefinite">
    <mpath xlink:href="#path27"></mpath>
  </animateMotion>
</circle><path id="path28" d="M 1412.3203087715974 270.83854002585946
c 0 19.39566461418629 -4.74574772474771 5.571095155138616 -10.316842879886325 5.571095155138616
S 1391.6866230118248 290.23420464004573 1391.6866230118248 270.83854002585946
s 4.74574772474771 -5.571095155138616 10.316842879886325 -5.571095155138616
S 1412.3203087715974 251.44287541167316 1412.3203087715974 270.83854002585946
z" fill="none" stroke="none"></path>
<circle cx="0" cy="0" r="5.040205474760767" fill="#d62e2e">
  <animateMotion begin="-13.813064064411199s" dur="18.02s" repeatCount="indefinite">
    <mpath xlink:href="#path28"></mpath>
  </animateMotion>
</circle><path id="path29" d="M 1094.0461375141365 886.2511612571785
c 0 32.85378799118968 -8.03869280635492 9.436726337894909 -17.475419144249827 9.436726337894909
S 1059.0952992256368 919.1049492483683 1059.0952992256368 886.2511612571785
s 8.03869280635492 -9.436726337894909 17.475419144249827 -9.436726337894909
S 1094.0461375141365 853.3973732659888 1094.0461375141365 886.2511612571785
z" fill="none" stroke="none"></path>
<circle cx="0" cy="0" r="4.76580996967193" fill="#d62e2e">
  <animateMotion begin="-16.121980579987394s" dur="18.02s" repeatCount="indefinite">
    <mpath xlink:href="#path29"></mpath>
  </animateMotion>
</circle><path id="path30" d="M 1023.521541691753 1029.6800298914077
c 0 33.48264493665787 -8.192562058969477 9.617355460529389 -17.809917519498867 9.617355460529389
S 987.9017066527553 1063.1626748280655 987.9017066527553 1029.6800298914077
s 8.192562058969477 -9.617355460529389 17.809917519498867 -9.617355460529389
S 1023.521541691753 996.1973849547499 1023.521541691753 1029.6800298914077
z" fill="none" stroke="none"></path>
<circle cx="0" cy="0" r="7.186861702306205" fill="#fc5c5c">
  <animateMotion begin="-9.067539056569272s" dur="18.02s" repeatCount="indefinite">
    <mpath xlink:href="#path30"></mpath>
  </animateMotion>
</circle><path id="path31" d="M 1638.5903362553124 678.6636266052476
c 0 20.002788803525032 -4.89429938809655 5.7454818903742115 -10.63978127847076 5.7454818903742115
S 1617.310773698371 698.6664154087727 1617.310773698371 678.6636266052476
s 4.89429938809655 -5.7454818903742115 10.63978127847076 -5.7454818903742115
S 1638.5903362553124 658.6608378017226 1638.5903362553124 678.6636266052476
z" fill="none" stroke="none"></path>
<circle cx="0" cy="0" r="4.939284400052985" fill="#eeeeee">
  <animateMotion begin="-3.1005063074695354s" dur="18.02s" repeatCount="indefinite">
    <mpath xlink:href="#path31"></mpath>
  </animateMotion>
</circle><path id="path32" d="M 922.4794318114525 977.4403184883345
c 0 21.919441381950406 -5.363267572179354 6.29600975864533 -11.659277330824684 6.29600975864533
S 899.1608771498031 999.3597598702848 899.1608771498031 977.4403184883345
s 5.363267572179354 -6.29600975864533 11.659277330824684 -6.29600975864533
S 922.4794318114525 955.5208771063841 922.4794318114525 977.4403184883345
z" fill="none" stroke="none"></path>
<circle cx="0" cy="0" r="7.399162645989016" fill="#ff0000">
  <animateMotion begin="-7.993813977154028s" dur="18.02s" repeatCount="indefinite">
    <mpath xlink:href="#path32"></mpath>
  </animateMotion>
</circle><path id="path33" d="M 1274.3699102133871 439.6235011846616
c 0 26.825168219865283 -6.563604989967036 7.705101509961304 -14.26870649992834 7.705101509961304
S 1245.8324972135304 466.4486694045269 1245.8324972135304 439.6235011846616
s 6.563604989967036 -7.705101509961304 14.26870649992834 -7.705101509961304
S 1274.3699102133871 412.7983329647963 1274.3699102133871 439.6235011846616
z" fill="none" stroke="none"></path>
<circle cx="0" cy="0" r="7.58246818669374" fill="#fc5c5c">
  <animateMotion begin="-0.21843421735685425s" dur="18.02s" repeatCount="indefinite">
    <mpath xlink:href="#path33"></mpath>
  </animateMotion>
</circle><path id="path34" d="M 934.4136716924759 405.764241652642
c 0 36.69984107723633 -8.979748348685483 10.541443713674266 -19.52119206235975 10.541443713674266
S 895.3712875677563 442.4640827298783 895.3712875677563 405.764241652642
s 8.979748348685483 -10.541443713674266 19.52119206235975 -10.541443713674266
S 934.4136716924759 369.06440057540567 934.4136716924759 405.764241652642
z" fill="none" stroke="none"></path>
<circle cx="0" cy="0" r="7.303514596463173" fill="#a80909">
  <animateMotion begin="-3.4839438144249844s" dur="18.02s" repeatCount="indefinite">
    <mpath xlink:href="#path34"></mpath>
  </animateMotion>
</circle></g>
<style type="text/css">.lded > .content, .lded > .content > .inner { height: 100%; }
.lded > .content > .inner > .viewer { width: 100%; height: 100%; max-width: 100%; overflow: hidden }
.lded > .content > .inner > .panel {
  position: absolute;
  bottom: 50px;
  left: 0;
  right: 0;
  opacity: 0.3;
}
.lded > .content > .inner > .panel:hover { opacity: 1; }
.lded > .content > .inner > .ctrl {
  position: absolute;
  bottom: 13px;
  left: 0;
  right: 0;
  margin: auto;
}
.lded > .content > .inner > .ctrl:hover {
  z-index: 10;
}
#editor > .inner > .title {
  position: absolute;
  bottom: 195px;
  left: 0;
  right: 0;
  z-index: 11;
}
#editor > .inner > .title > a:first-child {
  margin-left: 0!important;
#editor .lded .viewer { border-radius: 0 }</style></svg>